<svg width="18" height="18" viewBox="0 0 18 18" fill="none" xmlns="http://www.w3.org/2000/svg">
<path d="M16.8623 5.29785H13.4248V4.8291C13.4239 3.64703 12.9616 2.51201 12.1364 1.66569C11.3111 0.819367 10.1881 0.328591 9.00645 0.297852H8.78066C7.599 0.328591 6.476 0.819367 5.65076 1.66569C4.82552 2.51201 4.36323 3.64703 4.3623 4.8291V5.29785H0.924805C0.883365 5.29785 0.843622 5.31431 0.814319 5.34362C0.785017 5.37292 0.768555 5.41266 0.768555 5.4541V17.1729C0.768555 17.3386 0.834403 17.4976 0.951613 17.6148C1.06882 17.732 1.22779 17.7979 1.39355 17.7979H16.3936C16.5593 17.7979 16.7183 17.732 16.8355 17.6148C16.9527 17.4976 17.0186 17.3386 17.0186 17.1729V5.4541C17.0186 5.41266 17.0021 5.37292 16.9728 5.34362C16.9435 5.31431 16.9037 5.29785 16.8623 5.29785ZM5.9248 4.86816C5.9248 3.23379 7.22988 1.87754 8.86426 1.86035C9.25646 1.8569 9.64548 1.93111 10.0089 2.07872C10.3722 2.22633 10.7028 2.44441 10.9815 2.72039C11.2602 2.99636 11.4815 3.32478 11.6327 3.6867C11.7839 4.04862 11.8619 4.43688 11.8623 4.8291V5.29785H5.9248V4.86816ZM12.0186 12.1729H9.51855V14.6729H8.26855V12.1729H5.76855V10.9229H8.26855V8.42285H9.51855V10.9229H12.0186V12.1729Z" fill="#10B981"/>
</svg>
